<svg xmlns="http://www.w3.org/2000/svg" viewBox="0 0 512 512" role="img" aria-label="Best Food Ever (maskable)">
  <!-- Maskable icons should keep important content inside safe zone -->
  <rect width="512" height="512" fill="#0B0B0F"/>
  <g transform="translate(64 64)">
    <rect width="384" height="384" rx="96" fill="#18181B"/>

    <!-- plate -->
    <circle cx="192" cy="224" r="116" fill="none" stroke="#2A2A2F" stroke-width="22"/>
    <circle cx="192" cy="224" r="86" fill="none" stroke="#3A3A42" stroke-width="16"/>

    <!-- simple fork -->
    <path d="M98 84v110c0 20 14 36 34 40v86c0 12 10 22 22 22s22-10 22-22v-86c20-4 34-20 34-40V84h-18v104c0 12-8 22-20 26V84h-18v130c-12-4-20-14-20-26V84H98z"
          fill="#E5E7EB" opacity="0.95"/>

    <!-- leaf -->
    <path d="M272 102c-48 4-88 36-98 82 42 8 88-6 114-36 18-20 16-44-16-46z"
          fill="#22C55E"/>
    <path d="M188 184c14-26 44-52 82-64" fill="none" stroke="#052E2B" stroke-width="10" stroke-linecap="round" opacity="0.35"/>
  </g>
</svg>

