<svg xmlns="http://www.w3.org/2000/svg" viewBox="0 0 512 512" role="img" aria-label="Best Food Ever">
  <defs>
    <linearGradient id="bg" x1="0" y1="0" x2="1" y2="1">
      <stop offset="0" stop-color="#0B0B0F"/>
      <stop offset="1" stop-color="#18181B"/>
    </linearGradient>
    <linearGradient id="fg" x1="0" y1="0" x2="1" y2="1">
      <stop offset="0" stop-color="#22C55E"/>
      <stop offset="1" stop-color="#06B6D4"/>
    </linearGradient>
    <filter id="soft" x="-20%" y="-20%" width="140%" height="140%">
      <feGaussianBlur in="SourceAlpha" stdDeviation="10" result="b"/>
      <feOffset in="b" dy="8" result="o"/>
      <feColorMatrix in="o" type="matrix"
        values="0 0 0 0 0
                0 0 0 0 0
                0 0 0 0 0
                0 0 0 .25 0" result="s"/>
      <feMerge>
        <feMergeNode in="s"/>
        <feMergeNode in="SourceGraphic"/>
      </feMerge>
    </filter>
  </defs>

  <rect width="512" height="512" rx="120" fill="url(#bg)"/>

  <!-- plate -->
  <g filter="url(#soft)">
    <circle cx="256" cy="276" r="150" fill="none" stroke="#2A2A2F" stroke-width="26"/>
    <circle cx="256" cy="276" r="114" fill="none" stroke="#3A3A42" stroke-width="18"/>

    <!-- fork -->
    <path d="M156 126c0 42 0 84 0 126 0 26 18 46 44 50v112c0 14 11 26 26 26s26-12 26-26V302c26-4 44-24 44-50V126h-22v120c0 14-10 26-24 30V126h-22v150c-14-4-24-16-24-30V126h-22z"
          fill="#E5E7EB" opacity="0.95"/>

    <!-- leaf/mark -->
    <path d="M356 146c-62 4-114 46-126 106 54 10 112-8 146-46 22-26 20-56-20-60z"
          fill="url(#fg)"/>
    <path d="M248 252c18-34 58-68 108-82" fill="none" stroke="#052E2B" stroke-width="12" stroke-linecap="round" opacity="0.35"/>
  </g>
</svg>

